<svg xmlns="http://www.w3.org/2000/svg" width="240" height="320" viewBox="0 0 240 320"><defs><linearGradient id="pg_huo" x1="0" y1="0" x2="0" y2="1"><stop offset="0%" stop-color="#B3423D" stop-opacity="0.30"/><stop offset="100%" stop-color="#D98C88" stop-opacity="0.06"/></linearGradient><radialGradient id="aura_huo" cx="50%" cy="38%" r="55%"><stop offset="0%" stop-color="#B3423D" stop-opacity="0.45"/><stop offset="100%" stop-color="#B3423D" stop-opacity="0"/></radialGradient></defs><rect x="0" y="0" width="240" height="320" fill="url(#pg_huo)"/><ellipse cx="120" cy="130" rx="110" ry="150" fill="url(#aura_huo)"/><path d="M40,320 Q36,210 74.0,196 Q120.0,176 166.0,196 Q204,210 200,320 Z" fill="#B3423D" /><path d="M96.0,188 L120.0,236 L144.0,188 L132.0,180 L108.0,180 Z" fill="#D98C88" /><line x1="120.0" y1="196.0" x2="120.0" y2="300.0" stroke="#C8A86A" stroke-width="4.0" stroke-linecap="round" /><rect x="80.0" y="250.0" width="80.0" height="12.0" fill="#C8A86A" rx="3" opacity="0.85"/><ellipse cx="102.0" cy="268.0" rx="14.0" ry="10.0" fill="#E8D8BE" /><ellipse cx="138.0" cy="268.0" rx="14.0" ry="10.0" fill="#E8D8BE" /><ellipse cx="120.0" cy="116.0" rx="48.0" ry="56.0" fill="#E8D8BE" /><ellipse cx="76.0" cy="118.0" rx="8.0" ry="12.0" fill="#E8D8BE" /><ellipse cx="164.0" cy="118.0" rx="8.0" ry="12.0" fill="#E8D8BE" /><rect x="106.0" y="164.0" width="28.0" height="24.0" fill="#E8D8BE" /><circle cx="120.0" cy="56.0" r="14.0" fill="#1E2B28" /><rect x="102.0" y="50.0" width="36.0" height="10.0" fill="#C8A86A" rx="2"/><path d="M72.0,104.0 Q120.0,48.0 168.0,104.0 L168.0,112.0 Q120.0,64.0 72.0,112.0 Z" fill="#1E2B28" /><line x1="92.0" y1="96.0" x2="112.0" y2="98.0" stroke="#1E2B28" stroke-width="3.6" stroke-linecap="round" /><line x1="128.0" y1="98.0" x2="148.0" y2="96.0" stroke="#1E2B28" stroke-width="3.6" stroke-linecap="round" /><line x1="94.0" y1="114.0" x2="114.0" y2="116.0" stroke="#1E2B28" stroke-width="3.6" stroke-linecap="round" /><line x1="126.0" y1="116.0" x2="146.0" y2="114.0" stroke="#1E2B28" stroke-width="3.6" stroke-linecap="round" /><line x1="104.0" y1="142.0" x2="136.0" y2="142.0" stroke="#1E2B28" stroke-width="3.6" stroke-linecap="round" /><rect x="60.0" y="264.0" width="16.0" height="44.0" fill="#F4EFE3" rx="2"/><rect x="58.0" y="260.0" width="20.0" height="6.0" fill="#C8A86A" /><rect x="58.0" y="302.0" width="20.0" height="6.0" fill="#C8A86A" /><ellipse cx="120" cy="312" rx="86" ry="10" fill="#1E2B28" opacity="0.18"/></svg>